<svg xmlns="http://www.w3.org/2000/svg" viewBox="0 0 32 32" fill="none" aria-hidden="true">
  <rect width="32" height="32" rx="6" fill="#0f1117" stroke="#252b38" stroke-width="1"/>
  <g stroke="#3ee0d0" stroke-width="0.85" stroke-linecap="round" stroke-linejoin="round">
    <circle cx="15" cy="17" r="8.5" opacity="0.55"/>
    <path d="M15 4v26M4 15h26" opacity="0.35"/>
    <path d="M11.5 4l1.2 1.4M18.5 4l-1.2 1.4M11.5 30l1.2-1.4M18.5 30l-1.2-1.4M4 11.5l1.4 1.2M4 20.5l1.4-1.2M26 11.5l-1.4 1.2M26 20.5l-1.4-1.2" opacity="0.45"/>
    <path d="M15 11.5l1.4 2.4h-2.8l1.4-2.4z" fill="#3ee0d0" stroke="none" opacity="0.25"/>
    <ellipse cx="22.2" cy="10.8" rx="2" ry="1" fill="#3ee0d0" stroke="none"/>
    <path d="M22.2 10.8l3-2.6M22.2 10.8l3.2 1.4M22.2 10.8l-2.8 2.2M22.2 10.8l-2.6-2.3"/>
    <circle cx="25.2" cy="8.2" r="1" opacity="0.75"/>
    <circle cx="25.4" cy="12.2" r="1" opacity="0.75"/>
    <circle cx="19.2" cy="13" r="1" opacity="0.75"/>
    <circle cx="19.6" cy="8.5" r="1" opacity="0.75"/>
    <circle cx="22.2" cy="11.8" r="0.45" fill="#0f1117" stroke="#3ee0d0" stroke-width="0.5"/>
  </g>
</svg>